<?xml version="1.0" standalone="no"?>
<!DOCTYPE svg PUBLIC "-//W3C//DTD SVG 20010904//EN"
 "http://www.w3.org/TR/2001/REC-SVG-20010904/DTD/svg10.dtd">
<svg version="1.0" xmlns="http://www.w3.org/2000/svg"
 width="1024.000000pt" height="1024.000000pt" viewBox="0 0 1024.000000 1024.000000"
 preserveAspectRatio="xMidYMid meet">
<metadata>
Created by potrace 1.14, written by Peter Selinger 2001-2017
</metadata>
<g transform="translate(0.000000,1024.000000) scale(0.100000,-0.100000)"
fill="#000000" stroke="none">
<path d="M2420 10233 c0 -5 -24 -8 -52 -8 -29 1 -58 -3 -64 -7 -6 -4 -32 -9
-57 -10 -26 -2 -47 -6 -47 -9 0 -3 -21 -7 -47 -8 -25 0 -52 -6 -58 -11 -6 -5
-22 -7 -35 -5 -13 3 -27 1 -30 -5 -3 -5 -17 -11 -30 -13 -14 -2 -33 -7 -42
-11 -9 -4 -22 -5 -28 -1 -5 3 -10 0 -10 -7 0 -11 -2 -10 -9 0 -7 11 -9 11 -14
-2 -4 -9 -13 -13 -20 -10 -8 3 -21 -2 -30 -11 -10 -10 -18 -11 -22 -5 -5 8
-11 8 -20 0 -7 -6 -24 -13 -36 -15 -13 -3 -25 -9 -27 -15 -2 -6 -8 -8 -13 -5
-4 3 -29 -3 -53 -15 -25 -11 -50 -20 -55 -20 -6 0 -11 -5 -11 -11 0 -5 -4 -8
-9 -4 -5 3 -12 1 -16 -5 -4 -6 -10 -8 -15 -5 -5 3 -13 -3 -19 -12 -6 -10 -11
-12 -11 -5 0 13 -25 2 -64 -28 -11 -9 -16 -10 -12 -3 5 9 2 11 -8 7 -9 -3 -16
-10 -16 -15 0 -5 -6 -9 -14 -9 -7 0 -25 -9 -40 -21 -14 -11 -30 -17 -36 -14
-6 3 -13 -1 -16 -9 -3 -9 -10 -13 -15 -10 -5 3 -9 0 -9 -6 0 -6 -4 -8 -10 -5
-5 3 -10 1 -10 -4 0 -6 -7 -11 -16 -11 -8 0 -12 -4 -9 -10 3 -5 -3 -10 -13
-10 -11 0 -25 -7 -32 -15 -7 -8 -19 -15 -26 -15 -8 0 -14 -3 -14 -7 0 -8 -58
-44 -63 -40 -1 1 -13 -8 -27 -20 -13 -13 -28 -23 -32 -23 -5 0 -7 -4 -4 -8 3
-5 -10 -15 -29 -22 -19 -8 -45 -26 -57 -42 -12 -16 -39 -38 -59 -50 -21 -12
-36 -25 -33 -29 2 -4 -5 -10 -16 -14 -11 -3 -20 -13 -20 -21 0 -8 -4 -12 -10
-9 -5 3 -10 -1 -10 -9 0 -9 -7 -16 -16 -16 -8 0 -12 -4 -9 -10 3 -5 3 -10 -2
-10 -19 0 -105 -95 -95 -105 4 -4 3 -6 -3 -5 -21 5 -36 0 -30 -10 3 -5 -1 -10
-10 -10 -9 0 -13 -4 -10 -10 3 -5 -1 -10 -9 -10 -10 0 -13 -6 -9 -17 3 -10 3
-15 -1 -12 -9 8 -85 -63 -79 -73 2 -5 -1 -8 -6 -8 -6 0 -11 -6 -11 -14 0 -7
-16 -30 -35 -51 -19 -21 -31 -43 -28 -48 3 -6 1 -7 -5 -3 -6 3 -13 -3 -17 -14
-3 -11 -11 -20 -16 -20 -6 0 -7 -5 -4 -11 4 -6 -2 -17 -14 -25 -12 -9 -19 -20
-16 -25 3 -5 -2 -6 -11 -2 -12 4 -15 3 -10 -5 4 -8 0 -12 -11 -12 -15 0 -16
-2 -3 -10 8 -5 10 -10 3 -10 -6 0 -10 -8 -8 -17 1 -10 -7 -29 -19 -42 -11 -13
-14 -20 -6 -16 13 8 13 6 1 -8 -7 -9 -18 -14 -24 -10 -6 3 -7 1 -3 -5 4 -7 2
-12 -4 -12 -6 0 -8 -4 -5 -10 3 -5 1 -10 -5 -10 -6 0 -8 -4 -5 -10 3 -5 2 -10
-3 -10 -5 0 -10 -11 -10 -25 0 -14 -7 -34 -16 -44 -9 -10 -13 -21 -10 -24 4
-4 0 -9 -9 -13 -9 -3 -13 -12 -10 -20 3 -8 0 -14 -6 -14 -6 0 -11 -8 -11 -18
0 -22 -22 -72 -32 -72 -4 0 -4 -7 -1 -17 5 -12 3 -14 -7 -8 -10 6 -12 4 -7 -8
3 -10 2 -17 -4 -17 -6 0 -8 -4 -4 -9 3 -5 1 -12 -4 -16 -5 -3 -8 -15 -6 -27 3
-12 -3 -27 -13 -34 -9 -7 -13 -14 -8 -14 5 0 3 -7 -4 -15 -7 -9 -10 -18 -6
-22 3 -3 -2 -15 -11 -26 -13 -15 -14 -18 -3 -12 12 7 13 6 4 -6 -6 -8 -10 -22
-9 -31 2 -9 -3 -19 -11 -22 -12 -4 -12 -10 -4 -26 8 -14 8 -20 0 -20 -6 0 -8
-4 -5 -10 3 -5 1 -10 -5 -10 -7 0 -9 -8 -5 -20 4 -12 1 -27 -5 -35 -7 -8 -9
-15 -5 -15 4 0 2 -6 -4 -14 -6 -7 -9 -20 -5 -29 3 -8 0 -18 -6 -22 -9 -6 -9
-10 1 -16 10 -6 11 -9 2 -9 -8 0 -13 -15 -13 -41 0 -22 -4 -38 -8 -35 -5 3 -9
-2 -9 -10 0 -8 6 -13 13 -10 9 4 10 0 0 -18 -7 -15 -11 -73 -10 -164 0 -78 -3
-139 -8 -136 -12 8 -10 -10 4 -24 9 -9 9 -15 0 -24 -15 -15 -16 -32 -2 -23 5
3 10 1 10 -4 0 -6 -4 -11 -10 -11 -6 0 -10 -907 -10 -2606 0 -1433 4 -2603 8
-2600 5 3 9 -1 9 -9 0 -8 -5 -11 -11 -8 -8 5 -8 3 -1 -8 6 -8 11 -49 10 -91 0
-43 4 -78 8 -78 5 0 7 -12 6 -28 -2 -15 0 -33 4 -40 5 -6 4 -12 -1 -12 -6 0
-8 -9 -5 -20 3 -11 10 -20 15 -20 5 0 6 -4 3 -10 -3 -6 -2 -10 2 -10 5 0 10
-8 11 -17 1 -10 4 -31 6 -48 2 -16 9 -46 17 -65 7 -19 13 -43 13 -52 -1 -10 2
-15 6 -13 4 3 10 -8 13 -23 9 -46 16 -72 23 -84 4 -7 9 -26 11 -42 2 -16 11
-38 20 -48 9 -10 12 -18 8 -18 -4 0 -1 -8 7 -17 9 -10 14 -26 13 -36 -2 -9 0
-15 4 -12 5 2 13 -14 20 -36 7 -22 16 -37 21 -34 6 3 7 0 4 -8 -3 -8 1 -21 9
-28 7 -8 12 -20 9 -28 -3 -9 0 -11 8 -6 8 5 11 4 7 -2 -7 -11 14 -63 26 -63 4
0 7 -5 7 -11 0 -5 -6 -7 -12 -4 -7 4 -4 -2 8 -12 25 -22 57 -73 47 -73 -5 0 0
-5 10 -11 9 -6 15 -14 12 -20 -4 -5 -2 -9 3 -9 6 0 19 -20 31 -45 12 -25 26
-45 31 -45 6 0 10 -7 10 -15 0 -8 5 -15 11 -15 5 0 7 -4 4 -10 -3 -5 -2 -10 4
-10 5 0 13 -9 16 -20 4 -11 11 -18 16 -15 8 6 13 -8 10 -27 0 -5 3 -8 9 -8 5
0 10 -7 10 -15 0 -8 6 -15 14 -15 8 0 18 -5 22 -12 4 -7 3 -8 -4 -4 -8 5 -10
2 -6 -8 3 -9 10 -14 14 -11 4 3 11 -2 14 -11 3 -8 10 -12 16 -9 5 3 10 -1 10
-9 0 -9 5 -16 11 -16 5 0 7 -6 3 -13 -4 -6 -4 -9 1 -5 10 9 37 -11 30 -22 -3
-5 4 -11 15 -15 11 -4 18 -11 15 -16 -4 -5 -1 -9 6 -9 7 0 10 -3 6 -6 -3 -3 5
-17 19 -31 13 -13 21 -30 18 -36 -4 -7 -4 -9 1 -5 5 5 15 -1 22 -12 8 -11 19
-18 24 -14 5 3 9 2 8 -3 -3 -17 1 -33 9 -32 19 3 33 -2 27 -11 -3 -5 1 -10 10
-10 9 0 13 -4 10 -10 -3 -5 0 -10 8 -10 8 0 17 -7 21 -15 3 -8 12 -15 21 -15
8 0 14 -3 14 -7 -3 -20 2 -26 11 -13 8 13 10 12 10 -3 0 -10 5 -15 10 -12 6 4
9 1 8 -6 -2 -7 7 -18 19 -24 13 -7 20 -15 15 -20 -4 -4 1 -5 12 -1 13 4 17 2
13 -8 -4 -10 -1 -13 9 -9 7 3 14 0 14 -7 0 -6 3 -9 7 -7 5 3 14 -1 21 -9 7 -8
9 -14 5 -14 -4 0 13 -13 38 -28 24 -16 51 -35 59 -43 13 -14 47 -30 60 -30 3
0 9 -7 14 -16 7 -13 10 -13 17 -2 6 10 9 8 9 -8 0 -15 5 -21 14 -17 7 3 16 -2
19 -10 4 -9 12 -16 20 -16 19 0 67 -24 67 -33 0 -5 4 -6 9 -2 5 3 16 -2 24
-10 9 -8 20 -15 25 -15 6 0 13 -6 15 -12 4 -10 6 -10 6 0 1 8 8 6 23 -8 12
-11 29 -20 38 -20 9 0 20 -3 24 -7 4 -5 11 -8 14 -8 21 -2 52 -18 52 -27 0 -6
3 -8 7 -5 3 4 13 1 21 -6 13 -10 14 -9 7 3 -5 9 0 8 13 -4 12 -11 25 -16 28
-13 4 4 20 -3 35 -14 16 -11 33 -18 38 -14 5 3 12 1 16 -5 4 -6 11 -8 16 -5 5
4 9 3 9 -2 0 -4 12 -9 28 -9 35 -2 56 -7 62 -16 3 -4 15 -9 27 -11 12 -1 29
-9 39 -17 16 -13 17 -13 9 0 -5 9 1 7 15 -5 13 -11 20 -15 17 -8 -5 8 0 11 13
10 11 -1 20 -4 20 -8 0 -3 10 -5 23 -5 12 1 28 -2 35 -7 6 -5 12 -6 12 -3 0 4
9 2 20 -4 15 -8 20 -8 20 2 0 10 2 10 9 -1 7 -10 13 -11 31 -1 14 7 20 8 16 1
-4 -6 3 -13 16 -16 25 -6 5731 0 5836 6 34 2 62 7 62 10 0 4 9 9 20 12 11 3
20 1 20 -4 0 -5 10 -5 23 -1 12 4 34 7 50 6 15 0 27 3 27 7 0 9 41 6 58 -5 8
-4 10 -2 6 7 -4 11 4 13 33 11 40 -2 67 11 56 29 -3 6 -1 7 5 3 7 -4 12 -2 12
4 0 6 4 9 8 6 5 -3 19 1 33 7 13 7 31 12 39 12 8 0 17 3 20 7 3 4 20 8 38 10
18 1 32 6 32 10 0 4 7 8 15 8 8 0 15 5 15 11 0 5 5 7 10 4 6 -3 10 -2 10 4 0
6 6 8 14 5 8 -3 17 0 21 5 3 6 11 9 16 6 5 -4 9 -1 9 4 0 6 3 10 8 10 18 -3
33 2 28 9 -2 4 11 7 29 6 23 -1 32 2 29 11 -6 15 12 23 44 20 20 -2 23 2 21
22 -1 12 45 25 49 14 6 -17 22 -13 22 5 0 14 3 14 15 4 11 -9 15 -9 15 -1 0 7
4 9 10 6 6 -4 7 1 3 11 -4 12 -3 15 6 10 8 -6 11 -2 9 10 -2 10 2 19 7 19 21
2 64 28 59 36 -3 5 2 6 10 3 9 -3 16 -1 16 5 0 6 6 10 13 9 6 -2 11 3 9 9 -2
12 10 17 31 14 4 0 7 3 7 9 0 5 7 6 17 3 11 -4 14 -3 9 5 -11 18 4 14 28 -5
20 -17 20 -17 7 0 -12 15 -11 17 9 17 17 0 20 3 12 12 -12 16 -2 42 18 46 31
6 58 25 53 38 -3 8 0 14 7 14 6 0 9 4 6 9 -4 5 3 7 14 4 11 -3 17 -10 13 -16
-3 -5 -1 -7 5 -4 5 4 8 17 4 29 -3 14 -2 19 6 14 7 -4 12 -1 12 6 0 9 3 9 10
-2 9 -14 14 -7 11 13 -2 10 62 72 72 69 4 -1 7 3 7 9 0 6 8 9 18 7 15 -4 18 0
16 20 -3 29 23 62 35 43 6 -9 11 -7 22 5 12 16 12 17 -1 9 -13 -8 -13 -7 0 11
39 51 69 82 74 77 3 -4 6 1 6 11 0 9 5 14 10 11 6 -4 10 -3 9 2 -3 19 2 46 8
40 3 -4 17 8 30 26 13 17 26 31 28 30 3 -2 6 0 7 5 1 4 13 17 27 29 13 13 19
23 13 23 -5 0 -9 8 -7 18 2 9 4 22 4 27 1 6 6 3 11 -5 8 -13 10 -12 10 3 0 9
5 17 11 17 5 0 8 4 4 9 -3 5 -1 12 5 16 6 4 8 10 6 14 -5 8 3 10 48 13 20 2
23 5 15 20 -7 14 -6 18 6 18 9 0 13 5 10 10 -3 6 -1 10 6 10 8 0 7 5 -2 17
-10 11 -10 14 -1 9 7 -4 12 -1 12 9 0 9 5 13 10 10 6 -3 13 1 16 9 3 9 9 14
13 11 4 -2 8 2 8 10 0 8 -4 12 -8 9 -4 -2 -7 5 -6 16 1 11 7 20 14 20 7 0 12
3 12 8 -3 18 2 33 9 28 4 -2 8 6 8 20 0 13 -5 24 -10 24 -6 0 -4 4 4 10 9 6
19 5 29 -3 10 -8 8 -3 -3 16 -16 24 -17 27 -2 27 16 0 20 10 17 41 -2 21 25
43 44 35 17 -6 19 7 5 35 -8 13 -7 19 0 19 6 0 9 4 5 9 -3 5 -1 12 4 16 6 3 7
13 4 22 -4 9 -2 14 3 11 5 -3 10 10 11 30 1 19 8 39 15 43 7 5 9 9 5 9 -4 0
-2 10 5 23 13 21 14 28 17 55 0 7 6 10 11 7 7 -4 9 2 4 19 -3 15 -2 26 4 26 5
0 9 10 8 23 -2 24 22 69 33 63 3 -2 5 20 4 50 0 30 3 54 9 54 5 0 6 4 3 10 -3
6 -2 10 4 10 10 0 9 19 -3 38 -5 8 -3 11 5 10 7 -2 13 6 14 17 0 11 4 26 9 34
5 8 4 16 -5 21 -10 7 -10 12 2 26 9 11 9 15 2 10 -9 -5 -13 0 -13 13 0 12 6
21 13 21 8 0 7 4 -3 10 -10 7 -11 10 -2 10 10 0 12 572 12 2865 0 1603 -4
2865 -9 2865 -5 0 -7 14 -6 30 1 17 -2 30 -8 30 -6 0 -8 3 -4 6 3 3 2 17 -3
29 -6 16 -5 25 3 29 7 2 4 5 -7 5 -14 1 -16 4 -7 14 8 10 7 17 -2 27 -10 10
-9 11 3 5 12 -7 13 -6 4 6 -11 14 -24 67 -25 102 0 9 -4 17 -9 17 -6 0 -20 47
-21 77 -1 5 -5 14 -11 21 -6 7 -12 20 -13 30 -4 28 -17 62 -24 62 -3 0 -7 14
-8 32 -1 17 -6 34 -10 37 -5 3 -10 13 -12 21 -12 52 -23 80 -32 80 -5 0 -9 9
-9 20 0 11 -5 20 -12 20 -6 0 -8 3 -5 7 4 3 0 17 -9 30 -8 14 -17 34 -19 45
-3 11 -11 28 -20 38 -8 9 -15 22 -15 28 0 7 -4 12 -10 12 -5 0 -10 9 -10 20 0
11 -5 20 -10 20 -6 0 -9 3 -9 8 3 19 -2 33 -11 27 -9 -5 -16 32 -11 58 1 5 -3
6 -9 2 -5 -3 -10 -1 -10 5 0 6 -5 8 -10 5 -6 -4 -10 -3 -9 2 3 20 -2 34 -11
28 -9 -6 -14 8 -11 28 0 4 -3 7 -9 7 -5 0 -10 6 -10 13 0 7 -9 19 -19 27 -11
7 -18 17 -15 21 2 4 -4 14 -14 21 -11 7 -21 18 -23 23 -2 6 -7 9 -11 8 -4 -2
-5 6 -3 17 2 12 -2 20 -10 20 -7 0 -16 7 -19 16 -3 8 -11 12 -17 8 -7 -4 -9
-3 -6 3 3 5 -4 23 -16 38 -37 49 -149 160 -158 157 -5 -1 -9 7 -9 19 0 11 -4
17 -10 14 -5 -3 -10 -1 -10 5 0 6 -5 8 -10 5 -6 -4 -9 -1 -8 6 2 7 -7 18 -20
24 -12 5 -25 18 -28 27 -3 10 -12 18 -20 18 -9 0 -12 5 -8 12 5 8 2 9 -9 5
-11 -4 -17 -1 -17 9 0 8 -4 12 -10 9 -5 -3 -10 1 -10 10 0 9 -4 14 -9 10 -6
-3 -15 4 -21 15 -6 11 -14 19 -18 16 -4 -2 -18 9 -31 25 -19 24 -26 27 -38 17
-8 -6 -13 -7 -12 -2 1 5 1 16 0 24 -1 13 -2 13 -11 0 -8 -13 -10 -12 -10 3 0
10 -8 21 -17 24 -22 8 -44 29 -38 35 3 3 -1 5 -7 5 -26 1 -43 8 -59 26 -9 9
-21 17 -28 17 -6 0 -11 5 -11 11 0 6 -7 9 -15 5 -8 -3 -15 -1 -15 4 0 5 -16
16 -35 24 -19 8 -35 18 -35 21 0 3 5 3 12 -1 7 -5 8 -3 4 5 -5 7 -10 10 -13 7
-5 -4 -163 72 -173 84 -3 3 -15 5 -27 4 -12 -1 -20 3 -17 7 5 8 -17 14 -38 10
-5 0 -8 3 -8 8 0 5 -10 12 -22 16 -13 4 -27 9 -33 11 -5 2 -19 5 -30 6 -11 2
-26 9 -33 16 -8 7 -18 10 -23 7 -5 -4 -9 -1 -9 4 0 6 -8 11 -18 11 -10 0 -27
7 -39 15 -14 10 -24 12 -28 5 -4 -6 -12 -5 -21 5 -9 8 -20 13 -25 10 -5 -4 -9
-2 -9 3 0 5 -6 9 -12 10 -20 1 -73 10 -75 13 -2 1 -6 2 -10 3 -5 1 -13 5 -20
9 -6 4 -14 1 -16 -5 -4 -9 -6 -7 -6 3 -1 12 -10 15 -38 13 -21 -1 -41 2 -44 7
-3 5 -17 10 -32 11 -15 1 -27 6 -27 10 0 4 -5 8 -11 8 -5 0 -7 -6 -3 -12 6
-10 4 -10 -7 -2 -21 16 -82 27 -73 12 5 -7 3 -8 -7 -2 -20 12 -37 15 -104 17
-33 1 -66 6 -74 11 -10 6 -12 5 -7 -2 9 -15 1 -15 -24 -2 -15 8 -22 6 -30 -7
-11 -17 -11 -17 -6 -1 5 17 -138 17 -2579 18 -1747 0 -2586 -3 -2590 -10 -4
-6 -12 -7 -18 -3 -18 11 -38 12 -31 2 7 -11 1 -11 -30 1 -16 6 -27 6 -31 0 -4
-7 -13 -6 -26 0 -10 6 -19 7 -19 3z"/>
</g>
</svg>
